<?xml version="1.0" standalone="no"?>
<!DOCTYPE svg PUBLIC "-//W3C//DTD SVG 20010904//EN"
 "http://www.w3.org/TR/2001/REC-SVG-20010904/DTD/svg10.dtd">
<svg version="1.0" xmlns="http://www.w3.org/2000/svg"
 width="1058.000000pt" height="1058.000000pt" viewBox="0 0 1058.000000 1058.000000"
 preserveAspectRatio="xMidYMid meet">
<g transform="translate(0.000000,1058.000000) scale(0.100000,-0.100000)"
fill="#000000" stroke="none">
<path d="M6479 10226 c-2 -2 -416 -6 -919 -10 -503 -3 -982 -8 -1065 -10 -250
-8 -536 -17 -610 -21 -38 -2 -131 -6 -205 -9 -74 -4 -155 -8 -180 -11 -25 -2
-88 -7 -140 -10 -128 -8 -290 -22 -360 -30 -14 -2 -54 -6 -90 -10 -36 -3 -76
-8 -90 -10 -14 -3 -47 -7 -75 -10 -27 -3 -61 -8 -75 -10 -14 -3 -43 -7 -65
-11 -22 -3 -87 -14 -145 -24 -58 -11 -120 -22 -139 -25 -19 -3 -37 -7 -40 -9
-3 -2 -22 -7 -41 -10 -52 -8 -303 -82 -384 -113 -529 -201 -818 -515 -1090
-1183 -15 -36 -31 -74 -36 -85 -13 -30 -125 -323 -251 -660 -61 -165 -151
-398 -200 -517 -48 -120 -84 -220 -80 -222 3 -2 53 -7 111 -11 57 -3 116 -8
131 -10 95 -12 118 -9 139 16 38 42 104 148 220 349 134 231 184 308 290 438
97 119 199 218 315 305 28 20 55 40 60 45 20 15 152 91 210 119 106 53 338
134 425 150 14 2 41 8 60 13 19 5 58 12 85 16 28 3 52 7 55 9 3 2 34 6 70 10
36 4 73 9 83 10 41 8 253 18 387 17 167 0 359 -11 489 -28 l43 -6 -7 -246 c-3
-136 -8 -276 -10 -312 -2 -36 -6 -114 -10 -175 -3 -60 -8 -135 -10 -165 -2
-30 -7 -97 -10 -149 -4 -51 -8 -107 -10 -125 -2 -17 -6 -60 -9 -96 -9 -101
-15 -160 -22 -220 -3 -30 -7 -67 -9 -81 -1 -14 -6 -52 -10 -85 -4 -32 -9 -75
-11 -94 -2 -19 -7 -53 -10 -75 -4 -22 -7 -51 -9 -65 -4 -40 -25 -180 -35 -235
-5 -27 -12 -68 -15 -90 -3 -22 -9 -62 -15 -90 -5 -27 -11 -66 -14 -86 -3 -20
-8 -42 -10 -50 -3 -8 -7 -30 -10 -49 -8 -50 -12 -70 -52 -251 -19 -90 -37
-174 -40 -186 -8 -40 -85 -338 -101 -393 -9 -30 -18 -59 -19 -65 -7 -40 -151
-486 -174 -540 -11 -28 -35 -89 -36 -95 0 -3 -4 -14 -9 -25 -4 -11 -36 -91
-71 -177 -105 -261 -271 -605 -403 -836 -39 -67 -71 -125 -71 -128 0 -3 -5
-10 -10 -17 -6 -7 -46 -70 -91 -141 -107 -172 -135 -215 -259 -390 -58 -81
-114 -161 -125 -177 -11 -15 -86 -117 -166 -226 -292 -396 -390 -557 -455
-748 -32 -92 -38 -130 -38 -255 -1 -95 10 -236 19 -251 2 -3 6 -19 9 -35 11
-59 48 -162 93 -253 152 -309 446 -531 803 -607 214 -45 525 -3 745 102 258
122 475 353 639 681 31 61 56 115 56 120 0 4 7 22 16 38 21 41 95 247 133 370
54 180 119 447 156 640 17 92 23 120 30 155 2 14 7 41 10 60 3 19 10 60 15 90
5 30 12 71 15 90 3 19 7 46 10 60 6 31 12 71 20 130 3 25 8 57 11 71 2 15 6
47 9 70 3 24 10 71 15 104 5 33 12 83 15 111 3 28 7 59 9 70 2 10 7 48 11 84
3 36 8 76 10 90 2 14 7 50 10 80 3 30 8 66 10 80 2 14 6 52 10 85 13 124 16
151 20 185 2 19 7 64 11 100 3 36 8 76 9 90 2 14 6 59 9 100 4 41 9 91 11 110
6 53 14 128 20 200 3 36 7 81 10 100 2 19 7 70 10 112 4 43 8 90 10 105 2 16
6 66 9 113 4 47 9 96 11 110 2 14 7 61 10 105 8 112 15 183 20 235 3 25 7 77
10 115 4 39 8 90 10 115 2 25 7 79 10 120 3 41 7 95 10 120 5 55 13 140 20
240 4 41 8 86 10 100 2 14 6 69 10 124 4 54 8 106 10 115 1 9 6 59 10 111 3
52 8 111 10 130 2 19 6 73 9 120 4 47 8 101 11 120 4 35 10 98 20 235 3 39 8
88 10 110 2 22 6 76 10 120 3 44 8 100 10 125 3 25 7 74 10 110 8 97 15 181
20 220 2 19 7 71 10 115 4 44 8 98 10 120 2 22 7 69 10 105 3 36 7 85 10 110
2 25 7 73 10 108 3 34 8 90 11 125 4 34 8 73 9 87 1 14 3 27 3 30 1 3 505 5
1120 5 l1117 0 -1 -60 c-1 -61 -13 -288 -19 -360 -2 -22 -6 -85 -10 -140 -3
-55 -8 -116 -10 -135 -2 -19 -7 -75 -10 -125 -4 -49 -8 -108 -10 -130 -5 -52
-14 -158 -20 -242 -3 -38 -8 -84 -10 -103 -2 -19 -7 -73 -11 -120 -3 -47 -7
-92 -9 -100 -1 -8 -6 -58 -10 -110 -3 -52 -8 -102 -10 -110 -2 -8 -7 -51 -10
-95 -4 -44 -8 -96 -10 -115 -2 -19 -6 -73 -10 -120 -4 -47 -8 -92 -10 -100 -2
-8 -7 -46 -10 -85 -3 -38 -8 -86 -10 -105 -2 -19 -7 -69 -11 -110 -3 -41 -8
-88 -10 -105 -1 -16 -6 -59 -9 -95 -3 -36 -8 -78 -9 -95 -6 -57 -17 -170 -21
-210 -2 -22 -6 -62 -9 -90 -3 -27 -7 -75 -10 -105 -5 -48 -13 -141 -21 -220
-2 -14 -6 -61 -10 -105 -3 -44 -8 -91 -10 -105 -2 -14 -7 -61 -10 -105 -4 -44
-8 -96 -10 -115 -2 -19 -6 -71 -10 -115 -3 -44 -8 -96 -10 -115 -2 -19 -7 -71
-10 -115 -3 -44 -7 -100 -10 -125 -6 -56 -14 -154 -20 -245 -3 -38 -7 -97 -10
-130 -3 -33 -7 -98 -10 -145 -3 -47 -7 -112 -10 -145 -5 -61 -10 -155 -20
-345 -3 -58 -8 -139 -10 -180 -26 -475 -26 -948 0 -1080 3 -14 7 -44 10 -68 3
-24 9 -62 15 -85 5 -23 11 -57 15 -75 12 -72 81 -299 112 -372 45 -107 134
-274 188 -354 62 -93 71 -105 140 -184 277 -318 656 -520 1110 -591 228 -36
557 -34 753 4 11 2 36 6 57 9 113 18 355 105 483 173 77 42 209 126 267 172
22 17 52 41 68 52 36 28 199 190 256 254 220 248 445 654 579 1045 38 112 89
277 96 316 2 10 12 48 21 84 9 36 19 76 21 90 2 14 9 45 14 70 35 162 63 400
64 550 l1 75 -188 1 c-104 0 -190 -2 -191 -5 -2 -4 -6 -46 -10 -94 -4 -48 -9
-93 -11 -100 -2 -7 -6 -28 -9 -47 -5 -33 -7 -44 -22 -115 -13 -66 -59 -204
-91 -279 -139 -316 -383 -526 -708 -611 -122 -31 -184 -39 -325 -39 -177 0
-270 13 -407 59 -460 154 -713 619 -777 1430 -22 272 -22 802 -1 1075 2 30 7
100 10 155 14 231 23 352 30 415 2 19 7 71 10 115 13 161 24 281 30 330 2 17
7 67 10 110 3 44 8 91 10 105 2 14 7 57 10 95 4 39 8 86 10 105 2 19 7 67 10
105 3 39 8 86 11 105 2 20 6 60 9 90 3 30 7 75 9 100 3 25 8 79 12 120 4 41 8
86 9 100 2 14 6 59 10 100 3 41 8 89 10 105 2 17 6 66 10 110 4 44 8 94 10
110 1 17 5 68 9 115 4 47 9 108 11 135 10 123 23 299 30 425 3 52 7 124 10
160 9 136 23 546 25 711 l0 65 408 -2 c224 -1 772 -3 1217 -5 l810 -4 -1 355
c-4 778 -9 1192 -15 1196 -8 4 -693 10 -2649 19 -679 4 -1237 8 -1241 11 -3 2
-8 2 -10 0z"/>
</g>
</svg>
